<svg width="436" height="484" viewBox="0 0 436 484" fill="none" xmlns="http://www.w3.org/2000/svg">
<path d="M233.408 0.152344C232.475 0.552338 232.208 36.9523 232.341 106.286C232.475 193.486 232.875 212.019 234.341 212.419C235.941 212.686 239.275 208.286 244.608 198.952C245.941 196.552 251.941 187.752 258.075 179.352C271.541 160.686 274.741 156.286 280.608 147.886C283.141 144.286 288.341 137.086 292.341 131.886C296.208 126.686 299.408 121.352 299.408 120.019C299.408 118.819 298.075 115.486 296.475 112.819C291.675 105.352 291.275 104.419 282.741 89.219C273.541 72.5524 271.808 69.219 262.875 52.419C259.408 45.619 255.808 39.0857 254.875 38.019C253.275 35.8857 245.941 20.9523 240.608 8.95235C237.408 1.61902 235.675 -0.647659 233.408 0.152344ZM249.541 60.019C249.941 61.0857 251.408 62.2857 252.741 62.6857C253.941 63.0857 256.875 67.4857 259.141 72.419C263.275 81.3524 264.475 83.4857 269.008 90.2857C273.141 96.5524 280.341 111.886 281.408 116.286C282.475 121.886 280.341 128.686 276.075 132.686C274.208 134.419 270.741 138.952 268.475 142.552C266.075 146.286 261.808 152.019 259.008 155.352C256.075 158.686 253.275 162.686 252.608 164.286C251.275 167.886 249.675 168.152 247.275 165.086C245.808 163.352 245.408 153.219 245.141 114.152C245.008 87.3523 245.141 63.7523 245.541 61.619C246.341 57.7523 248.341 56.819 249.541 60.019Z" fill="#007222"/>
<path d="M249.541 60.019C249.941 61.0857 251.408 62.2857 252.741 62.6857C253.941 63.0857 256.875 67.4857 259.141 72.419C263.275 81.3524 264.475 83.4857 269.008 90.2857C273.141 96.5524 280.341 111.886 281.408 116.286C282.475 121.886 280.341 128.686 276.075 132.686C274.208 134.419 270.741 138.952 268.475 142.552C266.075 146.286 261.808 152.019 259.008 155.352C256.075 158.686 253.275 162.686 252.608 164.286C251.275 167.886 249.675 168.152 247.275 165.086C245.808 163.352 245.408 153.219 245.141 114.152C245.008 87.3523 245.141 63.7523 245.541 61.619C246.341 57.7523 248.341 56.819 249.541 60.019Z" fill="#007222"/>
<path d="M193.675 12.9524C191.008 19.0857 187.808 25.4857 186.875 27.3524C185.808 29.2191 182.208 36.0191 178.741 42.6857C175.275 49.2191 171.675 55.619 170.608 56.8191C169.541 57.8857 168.741 59.7524 168.741 60.8191C168.741 61.8857 167.675 64.1524 166.475 66.0191C165.275 67.7524 162.475 72.5524 160.341 76.5524C154.341 88.0191 151.541 93.2191 150.075 95.3524C144.208 104.552 136.741 118.019 136.741 119.486C136.741 122.019 142.875 130.952 161.408 156.019C164.608 160.419 168.875 166.686 170.875 170.019C172.875 173.352 175.008 176.286 175.541 176.686C176.608 177.486 188.741 193.752 188.741 194.552C188.741 194.819 191.008 198.952 193.941 203.486C197.408 209.352 199.941 212.152 202.075 212.419C205.141 212.952 205.141 212.819 203.941 203.752C202.741 194.286 202.208 35.6191 203.408 14.6857C204.075 3.35239 203.941 2.68571 201.408 2.28572C199.141 2.01906 197.808 3.88573 193.675 12.9524ZM189.141 76.8191C190.608 99.2191 189.675 161.619 187.808 163.486C185.808 165.486 181.008 161.352 175.275 152.419C173.008 148.952 170.075 145.752 168.608 145.352C167.008 144.819 166.075 143.352 166.075 141.352C166.075 139.619 165.541 138.019 165.008 137.752C162.075 136.552 154.075 122.419 154.075 118.286C154.075 113.619 159.008 102.819 164.208 95.8857C165.941 93.4857 168.741 88.2857 170.608 84.2857C174.875 74.4191 184.608 60.4191 186.475 61.0857C187.541 61.3524 188.475 67.2191 189.141 76.8191Z" fill="#007222"/>
<path d="M189.141 76.8191C190.608 99.2191 189.675 161.619 187.808 163.486C185.808 165.486 181.008 161.352 175.275 152.419C173.008 148.952 170.075 145.752 168.608 145.352C167.008 144.819 166.075 143.352 166.075 141.352C166.075 139.619 165.541 138.019 165.008 137.752C162.075 136.552 154.075 122.419 154.075 118.286C154.075 113.619 159.008 102.819 164.208 95.8857C165.941 93.4857 168.741 88.2857 170.608 84.2857C174.875 74.4191 184.608 60.4191 186.475 61.0857C187.541 61.3524 188.475 67.2191 189.141 76.8191Z" fill="#007222"/>
<path d="M1.14143 129.352C0.208093 132.152 0.608093 132.686 10.7414 142.019C15.9414 146.819 22.2081 153.086 24.8748 156.152C27.5414 159.219 36.3414 168.552 44.4748 176.952C52.6081 185.352 61.4081 194.819 64.0748 198.152C70.4748 206.419 80.7414 211.352 94.7414 212.819C100.608 213.486 106.208 214.419 107.275 214.686C110.075 215.752 127.008 218.952 137.941 220.686C143.408 221.486 148.341 222.419 149.008 222.819C149.541 223.219 154.075 224.019 159.141 224.686C164.075 225.219 171.941 226.819 176.475 228.019C182.341 229.619 185.408 229.886 186.341 228.952C188.208 227.086 186.341 224.686 173.408 212.686C163.008 202.952 145.275 184.686 134.741 172.686C131.808 169.486 124.608 161.886 118.741 155.886C106.741 143.619 106.341 143.486 80.7414 140.819C73.8081 140.019 65.1414 138.819 61.4081 138.019C57.8081 137.219 50.8748 136.419 46.0748 136.019C37.2748 135.486 23.6748 133.086 9.67476 129.486C3.00809 127.886 1.80809 127.886 1.14143 129.352ZM60.7414 150.952C61.8081 151.352 65.8081 151.886 69.4081 152.019C73.1414 152.286 79.0081 153.486 82.4748 154.686C85.9414 155.886 90.0748 156.419 91.5414 156.019C93.1414 155.486 95.1414 155.886 96.4748 157.086C97.6748 158.152 100.341 159.352 102.341 159.886C105.541 160.552 122.341 176.552 125.141 181.352C125.675 182.419 127.141 183.352 128.075 183.352C129.141 183.352 130.075 184.019 130.075 184.952C130.075 185.886 131.275 187.752 132.741 189.352C143.408 200.419 147.408 204.952 147.408 206.019C147.408 207.486 125.408 206.686 118.608 204.952C115.808 204.152 109.808 202.819 105.408 202.019C101.008 201.086 93.4081 199.219 88.4748 197.619C79.6748 195.086 79.0081 194.552 63.1414 177.619C54.0748 168.019 45.4081 158.819 43.8081 157.219C42.0748 155.752 40.7414 153.219 40.7414 151.752C40.7414 149.219 41.4081 149.086 49.8081 149.619C54.7414 149.886 59.6748 150.552 60.7414 150.952Z" fill="#007222"/>
<path d="M60.7414 150.952C61.8081 151.352 65.8081 151.886 69.4081 152.019C73.1414 152.286 79.0081 153.486 82.4748 154.686C85.9414 155.886 90.0748 156.419 91.5414 156.019C93.1414 155.486 95.1414 155.886 96.4748 157.086C97.6748 158.152 100.341 159.352 102.341 159.886C105.541 160.552 122.341 176.552 125.141 181.352C125.675 182.419 127.141 183.352 128.075 183.352C129.141 183.352 130.075 184.019 130.075 184.952C130.075 185.886 131.275 187.752 132.741 189.352C143.408 200.419 147.408 204.952 147.408 206.019C147.408 207.486 125.408 206.686 118.608 204.952C115.808 204.152 109.808 202.819 105.408 202.019C101.008 201.086 93.4081 199.219 88.4748 197.619C79.6748 195.086 79.0081 194.552 63.1414 177.619C54.0748 168.019 45.4081 158.819 43.8081 157.219C42.0748 155.752 40.7414 153.219 40.7414 151.752C40.7414 149.219 41.4081 149.086 49.8081 149.619C54.7414 149.886 59.6748 150.552 60.7414 150.952Z" fill="#007222"/>
<path d="M422.075 130.686C419.541 131.619 415.541 132.552 413.141 132.552C410.875 132.686 407.275 133.352 405.275 134.152C403.141 134.819 396.608 135.752 390.475 136.152C384.475 136.419 376.608 137.352 373.141 138.152C369.541 138.819 358.608 140.419 348.741 141.619C328.075 144.019 326.741 144.686 314.875 157.886C289.675 186.019 267.808 208.686 255.008 220.419C251.541 223.486 248.741 226.686 248.741 227.352C248.741 229.086 254.475 228.952 261.408 227.352C266.475 226.019 274.875 224.552 302.075 219.886C308.341 218.952 316.475 217.352 320.075 216.552C323.808 215.886 331.808 214.419 338.075 213.486C359.408 210.152 360.875 209.486 373.808 196.019C380.208 189.219 396.208 172.552 409.408 158.819C422.608 144.952 433.808 133.086 434.341 132.286C436.741 128.419 430.208 127.619 422.075 130.686ZM392.875 150.019C396.475 152.019 396.075 153.086 390.075 159.219C387.141 162.152 384.741 165.219 384.741 165.886C384.741 168.152 359.808 192.286 354.475 195.086C349.275 197.886 345.408 198.952 323.408 203.486C304.875 207.352 297.141 208.019 294.741 206.019C291.808 203.486 292.075 202.686 299.808 194.286C303.541 190.019 308.741 184.019 311.275 180.952C313.808 177.886 316.741 175.352 317.675 175.352C318.608 175.352 319.408 174.552 319.408 173.619C319.408 170.552 329.008 162.019 335.941 158.819C343.408 155.352 353.141 152.686 357.408 152.686C361.275 152.819 372.608 150.552 373.675 149.619C375.008 148.152 389.941 148.552 392.875 150.019Z" fill="#007222"/>
<path d="M392.875 150.019C396.475 152.019 396.075 153.086 390.075 159.219C387.141 162.152 384.741 165.219 384.741 165.886C384.741 168.152 359.808 192.286 354.475 195.086C349.275 197.886 345.408 198.952 323.408 203.486C304.875 207.352 297.141 208.019 294.741 206.019C291.808 203.486 292.075 202.686 299.808 194.286C303.541 190.019 308.741 184.019 311.275 180.952C313.808 177.886 316.741 175.352 317.675 175.352C318.608 175.352 319.408 174.552 319.408 173.619C319.408 170.552 329.008 162.019 335.941 158.819C343.408 155.352 353.141 152.686 357.408 152.686C361.275 152.819 372.608 150.552 373.675 149.619C375.008 148.152 389.941 148.552 392.875 150.019Z" fill="#007222"/>
<path d="M164.074 243.352C153.274 245.086 72.7411 248.686 46.4745 248.686C45.6745 248.686 44.4745 250.019 44.0745 251.619C43.1411 254.686 39.5411 262.952 32.6078 277.486C30.4745 282.019 28.7411 286.152 28.7411 286.686C28.7411 287.619 26.3411 292.819 17.9411 310.686C16.6078 313.619 13.5411 320.552 11.2745 326.019C9.0078 331.486 5.8078 337.752 4.07447 340.019C0.341135 345.086 -0.858865 348.819 0.607802 351.219C1.67447 352.819 3.94114 351.886 12.7411 346.286C18.7411 342.419 23.9411 339.352 24.3411 339.352C24.7411 339.352 26.8745 338.019 29.1411 336.286C31.5411 334.686 34.6078 332.686 36.2078 331.886C37.6745 331.086 44.7411 326.819 51.8078 322.552C65.4078 314.286 75.1411 308.686 80.7411 305.886C82.6078 304.952 86.4745 302.552 89.4078 300.552C92.3411 298.686 97.1411 295.752 100.074 294.152C103.008 292.552 107.274 290.152 109.408 288.686C111.674 287.219 116.341 284.552 119.941 282.552C123.541 280.686 133.274 274.952 141.541 269.886C149.808 264.819 157.141 260.686 157.674 260.686C158.341 260.686 159.541 260.019 160.341 259.219C161.141 258.419 166.741 255.486 172.874 252.552C179.008 249.752 184.074 246.819 183.941 246.019C183.808 245.352 183.674 244.019 183.674 243.352C183.408 241.886 173.808 241.886 164.074 243.352ZM128.608 260.152C129.808 261.352 123.008 266.286 114.874 270.419C111.008 272.419 106.741 275.219 105.408 276.686C104.074 278.152 102.074 279.352 100.874 279.352C99.6745 279.352 97.9411 280.552 97.0078 282.019C96.0745 283.486 94.4745 284.686 93.2745 284.686C91.4078 284.686 75.8078 293.486 62.3411 302.152C59.2745 304.152 52.6078 307.752 47.6745 310.286C42.8745 312.686 38.0745 315.486 37.0078 316.286C36.0745 317.219 33.9411 318.019 32.4745 318.019C30.4745 318.019 30.0745 317.486 30.7411 315.619C31.2745 314.419 31.9411 312.152 32.3411 310.686C33.2745 307.086 37.2745 297.486 45.9411 278.686C52.3411 264.952 55.1411 262.286 65.0078 260.286C73.2745 258.552 127.008 258.552 128.608 260.152Z" fill="#007222"/>
<path d="M128.608 260.152C129.808 261.352 123.008 266.286 114.874 270.419C111.008 272.419 106.741 275.219 105.408 276.686C104.074 278.152 102.074 279.352 100.874 279.352C99.6745 279.352 97.9411 280.552 97.0078 282.019C96.0745 283.486 94.4745 284.686 93.2745 284.686C91.4078 284.686 75.8078 293.486 62.3411 302.152C59.2745 304.152 52.6078 307.752 47.6745 310.286C42.8745 312.686 38.0745 315.486 37.0078 316.286C36.0745 317.219 33.9411 318.019 32.4745 318.019C30.4745 318.019 30.0745 317.486 30.7411 315.619C31.2745 314.419 31.9411 312.152 32.3411 310.686C33.2745 307.086 37.2745 297.486 45.9411 278.686C52.3411 264.952 55.1411 262.286 65.0078 260.286C73.2745 258.552 127.008 258.552 128.608 260.152Z" fill="#007222"/>
<path d="M251.408 244.419C251.408 246.286 253.808 248.152 260.474 251.352C268.341 255.352 284.741 264.419 297.274 272.019C299.808 273.486 307.408 277.886 314.208 281.752C321.141 285.619 327.674 289.352 328.741 290.019C344.474 300.019 368.341 314.152 372.741 316.286C373.808 316.686 377.808 319.086 381.408 321.352C385.141 323.752 394.074 329.086 401.408 333.486C408.741 337.752 418.474 343.886 423.141 346.952C431.141 352.419 434.074 353.619 435.674 351.886C436.741 350.952 433.141 343.086 428.341 335.752C426.341 332.552 424.741 329.486 424.741 328.686C424.741 327.886 423.141 323.752 421.274 319.619C419.274 315.486 416.074 308.152 413.808 303.352C411.674 298.552 408.741 292.419 407.408 289.752C405.941 287.086 404.741 284.152 404.741 283.352C404.741 282.686 402.074 276.419 398.874 269.619C395.541 262.819 392.474 255.619 392.074 253.619C391.541 251.619 390.474 249.619 389.674 249.086C388.874 248.552 383.008 248.286 376.741 248.552C370.474 248.686 355.274 248.152 342.741 247.352C330.341 246.552 308.074 245.219 293.408 244.552C278.741 243.752 263.274 242.952 259.141 242.552C252.074 241.886 251.408 242.019 251.408 244.419ZM377.808 263.752C381.141 266.152 384.341 270.019 386.208 273.752C395.408 293.486 402.074 308.952 402.074 311.219C402.074 314.286 396.474 315.619 393.141 313.352C388.474 310.152 375.008 303.352 373.274 303.352C372.341 303.352 370.874 302.152 370.074 300.686C369.274 299.219 367.541 298.019 366.208 298.019C364.874 298.019 362.208 296.552 360.341 294.819C358.474 293.086 354.208 290.552 350.874 289.352C347.541 288.019 344.741 286.419 344.741 285.752C344.741 285.086 343.008 283.886 340.741 283.219C338.608 282.419 336.474 280.686 336.074 279.219C335.541 277.752 334.074 276.686 332.341 276.686C329.274 276.686 320.608 271.486 316.341 267.086C315.008 265.752 312.874 264.686 311.408 264.686C308.208 264.686 306.474 262.019 308.874 260.552C309.808 260.019 324.474 259.619 341.541 259.752L372.341 260.019L377.808 263.752Z" fill="#007222"/>
<path d="M377.808 263.752C381.141 266.152 384.341 270.019 386.208 273.752C395.408 293.486 402.074 308.952 402.074 311.219C402.074 314.286 396.474 315.619 393.141 313.352C388.474 310.152 375.008 303.352 373.274 303.352C372.341 303.352 370.874 302.152 370.074 300.686C369.274 299.219 367.541 298.019 366.208 298.019C364.874 298.019 362.208 296.552 360.341 294.819C358.474 293.086 354.208 290.552 350.874 289.352C347.541 288.019 344.741 286.419 344.741 285.752C344.741 285.086 343.008 283.886 340.741 283.219C338.608 282.419 336.474 280.686 336.074 279.219C335.541 277.752 334.074 276.686 332.341 276.686C329.274 276.686 320.608 271.486 316.341 267.086C315.008 265.752 312.874 264.686 311.408 264.686C308.208 264.686 306.474 262.019 308.874 260.552C309.808 260.019 324.474 259.619 341.541 259.752L372.341 260.019L377.808 263.752Z" fill="#007222"/>
<path d="M191.408 274.686C184.875 279.486 164.075 292.819 155.008 297.752C152.075 299.352 148.608 301.619 147.408 302.686C146.208 303.752 144.741 304.686 144.075 304.686C143.541 304.686 135.675 309.219 126.741 314.686C117.675 320.152 109.941 324.686 109.408 324.686C108.741 324.686 107.275 325.619 106.075 326.686C104.875 327.752 101.408 330.019 98.4747 331.619C95.408 333.352 88.3413 337.352 82.608 340.552C76.7413 343.752 69.408 347.886 66.0747 349.752C62.7413 351.619 58.608 354.152 56.7413 355.352C54.8747 356.686 49.808 359.619 45.408 361.886C41.008 364.286 34.7413 367.619 31.5413 369.486C28.3413 371.219 25.008 372.686 24.0747 372.686C21.5413 372.686 16.0747 379.219 17.5413 380.552C18.208 381.219 27.408 382.019 38.0747 382.419C48.7413 382.952 64.8747 384.152 74.0747 385.219C97.408 388.152 126.741 390.152 129.275 389.219C130.475 388.686 132.341 386.419 133.408 384.152C134.475 381.886 137.141 376.952 139.408 373.352C141.541 369.619 143.941 365.486 144.608 364.019C145.275 362.552 147.408 359.352 149.275 356.819C151.141 354.286 152.741 351.619 152.741 350.952C152.741 350.286 154.475 347.352 156.608 344.286C165.275 331.619 167.675 327.752 175.941 313.086C182.475 301.752 188.875 292.019 193.275 286.552C195.141 284.152 196.741 281.886 196.741 281.219C196.741 280.686 197.941 278.952 199.408 277.352C202.208 274.419 201.808 269.886 198.875 270.152C198.075 270.152 194.741 272.286 191.408 274.686ZM158.741 315.352C159.141 316.019 157.675 319.086 155.408 322.152C153.275 325.219 151.408 328.286 151.408 329.086C151.408 329.752 149.675 332.552 147.541 335.219C145.408 337.886 142.475 342.419 140.875 345.352C138.075 350.819 135.275 354.819 131.141 359.486C129.808 360.819 128.741 363.219 128.741 364.552C128.741 366.019 126.741 369.219 124.475 371.752C120.208 376.286 119.808 376.286 110.741 375.886C78.208 374.552 67.408 372.552 67.408 367.752C67.408 365.752 73.6747 359.352 75.808 359.352C76.4747 359.352 79.2747 357.619 81.9413 355.486C84.608 353.352 89.408 350.419 92.7413 348.819C101.141 344.686 107.941 340.419 109.141 338.419C109.675 337.486 111.675 336.686 113.541 336.686C115.408 336.686 119.408 334.686 122.608 332.152C125.675 329.619 131.008 326.286 134.475 324.819C137.941 323.352 141.541 321.486 142.475 320.686C145.275 318.152 153.275 314.152 155.675 314.152C156.875 314.019 158.208 314.552 158.741 315.352Z" fill="#007222"/>
<path d="M158.741 315.352C159.141 316.019 157.675 319.086 155.408 322.152C153.275 325.219 151.408 328.286 151.408 329.086C151.408 329.752 149.675 332.552 147.541 335.219C145.408 337.886 142.475 342.419 140.875 345.352C138.075 350.819 135.275 354.819 131.141 359.486C129.808 360.819 128.741 363.219 128.741 364.552C128.741 366.019 126.741 369.219 124.475 371.752C120.208 376.286 119.808 376.286 110.741 375.886C78.208 374.552 67.408 372.552 67.408 367.752C67.408 365.752 73.6747 359.352 75.808 359.352C76.4747 359.352 79.2747 357.619 81.9413 355.486C84.608 353.352 89.408 350.419 92.7413 348.819C101.141 344.686 107.941 340.419 109.141 338.419C109.675 337.486 111.675 336.686 113.541 336.686C115.408 336.686 119.408 334.686 122.608 332.152C125.675 329.619 131.008 326.286 134.475 324.819C137.941 323.352 141.541 321.486 142.475 320.686C145.275 318.152 153.275 314.152 155.675 314.152C156.875 314.019 158.208 314.552 158.741 315.352Z" fill="#007222"/>
<path d="M235.675 273.086C234.608 274.419 234.741 275.752 236.475 278.286C248.208 295.752 257.008 309.619 262.741 319.352C265.008 323.086 269.541 330.552 272.875 335.752C276.208 341.086 280.075 347.086 281.541 349.352C282.875 351.486 284.741 354.552 285.541 356.019C286.341 357.486 290.075 363.619 293.808 369.619C297.408 375.619 300.875 381.752 301.408 383.352C303.408 389.486 306.875 390.286 327.675 388.819C338.208 388.019 349.808 386.819 353.408 386.152C360.075 384.952 394.075 382.152 409.408 381.619C416.208 381.352 417.408 380.952 417.408 378.819C417.408 376.952 413.275 374.152 401.408 368.152C392.608 363.619 383.008 358.419 380.075 356.552C377.141 354.686 370.875 351.086 366.075 348.552C361.275 346.019 353.541 341.486 348.741 338.419C343.941 335.219 339.541 332.686 338.875 332.686C338.341 332.686 335.141 330.819 331.808 328.686C328.608 326.419 325.675 324.686 325.275 324.686C324.875 324.686 318.208 320.819 310.341 316.152C302.475 311.486 293.675 306.286 290.608 304.552C275.808 295.886 265.008 289.352 261.408 286.819C236.475 269.619 237.941 270.286 235.675 273.086ZM300.741 325.486C306.875 328.952 313.008 332.952 314.341 334.286C315.675 335.619 317.941 336.686 319.408 336.686C321.941 336.686 350.875 353.352 355.541 357.486C356.608 358.552 358.608 359.352 359.808 359.352C361.008 359.352 362.075 360.019 362.075 360.819C362.075 361.486 363.808 362.819 365.941 363.486C370.075 364.952 372.208 368.419 370.341 370.286C368.475 372.152 332.075 376.419 323.008 375.886C316.875 375.619 310.875 371.752 310.875 371.752C310.875 371.752 303.408 363.352 303.408 359.752C303.408 358.686 301.941 356.552 300.075 355.086C298.208 353.619 296.741 352.019 296.741 351.352C296.741 350.686 293.675 344.952 289.941 338.552C282.875 326.286 279.008 316.952 280.208 315.086C280.608 314.419 282.875 315.086 285.141 316.419C285.141 316.419 294.475 321.886 300.741 325.486Z" fill="#007222"/>
<path d="M300.741 325.486C306.875 328.952 313.008 332.952 314.341 334.286C315.675 335.619 317.941 336.686 319.408 336.686C321.941 336.686 350.875 353.352 355.541 357.486C356.608 358.552 358.608 359.352 359.808 359.352C361.008 359.352 362.075 360.019 362.075 360.819C362.075 361.486 363.808 362.819 365.941 363.486C370.075 364.952 372.208 368.419 370.341 370.286C368.475 372.152 332.075 376.419 323.008 375.886C316.875 375.619 310.875 371.752 310.875 371.752C310.875 371.752 303.408 363.352 303.408 359.752C303.408 358.686 301.941 356.552 300.075 355.086C298.208 353.619 296.741 352.019 296.741 351.352C296.741 350.686 293.675 344.952 289.941 338.552C282.875 326.286 279.008 316.952 280.208 315.086C280.608 314.419 282.875 315.086 285.141 316.419C285.141 316.419 294.475 321.886 300.741 325.486Z" fill="#007222"/>
<path d="M216.208 279.619C215.141 281.352 213.274 286.286 212.074 290.686C210.741 295.086 208.874 301.352 207.808 304.686C202.208 321.752 200.341 326.952 199.274 329.352C198.608 330.819 197.141 334.952 196.074 338.686C193.941 346.286 187.541 364.152 184.341 371.886C181.274 378.686 181.408 388.952 184.608 395.086C185.941 397.752 189.541 407.486 192.741 416.686C195.808 425.886 198.874 434.552 199.541 436.019C201.941 441.352 207.674 457.486 209.541 463.886C212.074 473.086 217.008 483.352 218.608 483.352C220.208 483.352 224.741 471.886 224.741 467.886C224.741 466.552 226.208 461.219 228.208 456.019C234.608 438.152 236.341 433.219 242.741 413.619C246.341 402.686 249.808 393.619 250.341 393.219C252.474 391.886 251.274 378.552 248.208 370.019C242.208 353.219 237.808 340.019 236.741 335.352C236.074 332.819 233.141 323.486 230.074 314.819C227.141 306.019 224.474 296.686 224.208 294.152C223.541 287.619 221.008 278.286 219.408 277.352C218.741 276.952 217.274 278.019 216.208 279.619ZM221.941 334.019C223.541 336.952 224.741 340.286 224.741 341.219C224.741 342.286 226.474 346.952 228.474 351.619C230.608 356.152 233.141 363.352 234.074 367.352C235.008 371.352 236.074 375.886 236.608 377.219C238.208 381.619 235.674 395.486 230.474 411.352C227.674 419.752 224.741 427.619 224.074 428.686C223.408 429.752 223.008 431.619 223.141 432.819C223.674 435.619 219.008 439.619 216.208 438.552C215.008 438.152 213.141 435.486 211.941 432.819C210.741 430.152 209.274 426.952 208.608 425.752C207.941 424.419 207.408 422.152 207.408 420.686C207.408 419.219 206.208 416.152 204.741 413.752C203.274 411.352 202.074 408.152 202.074 406.686C202.074 405.219 200.874 400.686 199.408 396.686C195.008 384.686 196.208 374.819 204.474 354.019C206.608 348.552 208.874 341.886 209.408 339.352C210.474 334.419 214.741 328.686 217.541 328.686C218.341 328.686 220.341 331.086 221.941 334.019Z" fill="#007222"/>
<path d="M221.941 334.019C223.541 336.952 224.741 340.286 224.741 341.219C224.741 342.286 226.474 346.952 228.474 351.619C230.608 356.152 233.141 363.352 234.074 367.352C235.008 371.352 236.074 375.886 236.608 377.219C238.208 381.619 235.674 395.486 230.474 411.352C227.674 419.752 224.741 427.619 224.074 428.686C223.408 429.752 223.008 431.619 223.141 432.819C223.674 435.619 219.008 439.619 216.208 438.552C215.008 438.152 213.141 435.486 211.941 432.819C210.741 430.152 209.274 426.952 208.608 425.752C207.941 424.419 207.408 422.152 207.408 420.686C207.408 419.219 206.208 416.152 204.741 413.752C203.274 411.352 202.074 408.152 202.074 406.686C202.074 405.219 200.874 400.686 199.408 396.686C195.008 384.686 196.208 374.819 204.474 354.019C206.608 348.552 208.874 341.886 209.408 339.352C210.474 334.419 214.741 328.686 217.541 328.686C218.341 328.686 220.341 331.086 221.941 334.019Z" fill="#007222"/>
</svg>
